<?xml version="1.0" standalone="no"?>
<!DOCTYPE svg PUBLIC "-//W3C//DTD SVG 20010904//EN"
 "http://www.w3.org/TR/2001/REC-SVG-20010904/DTD/svg10.dtd">
<svg version="1.0" xmlns="http://www.w3.org/2000/svg"
 width="631.000000pt" height="631.000000pt" viewBox="0 0 631.000000 631.000000"
 preserveAspectRatio="xMidYMid meet">
<metadata>
Created by potrace 1.14, written by Peter Selinger 2001-2017
</metadata>
<g transform="translate(0.000000,631.000000) scale(0.100000,-0.100000)"
fill="#000000" stroke="none">
<path d="M3100 5434 c-19 -8 -51 -30 -70 -49 l-36 -35 -884 -2 -885 -3 -70
-33 c-112 -53 -199 -150 -252 -282 -16 -42 -18 -114 -21 -1165 -2 -835 0
-1134 9 -1175 15 -69 62 -165 103 -208 l31 -34 -25 -16 c-27 -18 -285 -274
-420 -417 -47 -49 -179 -187 -294 -305 -266 -274 -278 -296 -241 -468 27 -129
127 -256 250 -317 116 -58 -46 -55 2873 -55 l2683 0 95 31 c191 62 302 181
334 361 18 98 -8 210 -60 258 -9 8 -43 47 -76 85 -32 39 -94 106 -136 150
-562 588 -614 641 -653 662 -14 8 -11 15 20 47 40 42 88 131 107 198 10 33 13
307 15 1163 3 1112 3 1120 -18 1185 -50 157 -174 275 -338 324 -48 14 -153 16
-921 16 l-866 0 -35 36 c-59 63 -142 81 -219 48z m20 -144 c0 -10 6 -20 13
-23 9 -3 9 -9 1 -23 -7 -12 -8 -28 -3 -42 10 -28 -1 -28 -35 -1 -18 14 -26 17
-27 7 -1 -13 -16 27 -18 47 0 6 8 25 19 43 17 28 23 32 35 22 8 -7 15 -21 15
-30z m113 9 c27 -22 37 -38 37 -59 0 -40 -22 -55 -45 -30 -10 11 -26 20 -36
20 -21 0 -24 5 -34 48 -5 26 -3 32 10 32 9 0 13 5 10 10 -13 21 22 9 58 -21z
m-239 -163 c13 -30 32 -58 42 -64 14 -8 7 -9 -27 -6 -24 2 -410 5 -858 8 -805
4 -815 4 -855 -16 -57 -28 -84 -55 -112 -110 -23 -45 -24 -57 -24 -221 l0
-174 301 5 c198 3 304 1 310 -5 7 -7 -1 -20 -26 -39 l-37 -28 -279 -4 -279 -5
0 -60 0 -60 275 5 274 5 141 144 c122 125 141 149 146 183 10 81 61 126 144
126 23 0 54 -7 70 -16 31 -19 60 -72 60 -111 0 -41 -39 -93 -84 -114 -52 -24
-60 -24 -113 3 l-44 22 -150 -157 -151 -157 -284 0 -285 0 3 -72 3 -73 584 -3
c621 -2 601 -1 601 -49 l0 -23 -257 -2 c-142 -2 -368 -1 -503 0 -135 2 -287 1
-337 -3 l-93 -7 0 -34 0 -34 98 0 c83 0 109 -5 182 -31 47 -17 103 -33 125
-37 l40 -6 -50 -7 c-27 -3 -108 -8 -180 -9 -71 -2 -148 -4 -170 -5 l-40 -2 -3
-47 -3 -46 236 0 236 0 79 -60 c86 -66 173 -157 164 -171 -10 -16 -51 -10 -80
13 -16 12 -49 41 -74 64 l-45 43 -255 7 -255 7 3 -469 c4 -528 2 -511 83 -593
54 -54 102 -69 245 -75 102 -4 124 -2 146 12 38 25 204 163 353 293 72 63 189
163 260 224 72 60 184 157 250 215 66 58 181 157 255 220 152 129 429 369 537
466 39 35 74 64 77 64 3 0 6 -12 6 -26 0 -70 100 -253 202 -369 53 -60 146
-131 219 -166 32 -16 59 -33 59 -37 0 -14 -238 -225 -422 -374 -95 -78 -207
-171 -248 -208 -41 -36 -118 -100 -170 -140 -133 -103 -201 -162 -196 -168 3
-2 499 -4 1102 -3 1065 2 1098 3 1138 22 66 30 110 73 144 137 l32 60 2 1044
2 1043 -26 50 c-33 62 -90 119 -143 141 -35 15 -88 16 -455 15 -228 -1 -598
-4 -823 -7 -224 -3 -425 -3 -446 1 l-39 6 29 48 30 48 76 7 c42 3 419 6 839 6
743 0 765 -1 818 -20 110 -41 188 -123 226 -235 20 -60 20 -77 18 -1121 l-3
-1059 -33 -67 c-40 -81 -111 -149 -202 -192 l-65 -31 -1110 -5 c-610 -3 -1443
-3 -1850 0 l-740 5 -65 32 c-97 47 -144 92 -187 181 l-38 76 -3 1060 c-3 1182
-6 1112 68 1223 43 66 91 104 166 133 47 18 87 19 872 20 l822 0 24 -54z m876
-86 c0 -6 -15 -19 -32 -30 -28 -17 -34 -18 -36 -5 -2 8 -7 15 -12 15 -5 0 -7
7 -4 15 7 17 84 22 84 5z m-1880 -164 c0 -2 -8 -10 -17 -17 -16 -13 -17 -12
-4 4 13 16 21 21 21 13z m2433 -12 c20 -4 37 -12 37 -19 0 -18 -230 -226 -368
-332 -105 -81 -123 -99 -118 -117 4 -11 9 -43 12 -71 9 -88 13 -95 98 -183 45
-48 104 -115 129 -149 40 -53 60 -68 129 -102 46 -23 86 -37 92 -32 6 4 45 35
87 69 133 107 492 373 497 368 9 -10 22 -182 17 -221 -21 -140 -83 -286 -158
-371 -41 -47 -121 -105 -197 -144 -219 -111 -517 -111 -744 1 -178 89 -294
197 -363 339 -55 113 -73 193 -73 322 0 272 143 474 417 588 42 18 104 38 137
45 63 14 303 19 369 9z m-2520 -79 c-3 -9 -8 -14 -10 -11 -3 3 -2 9 2 15 9 16
15 13 8 -4z m397 -269 c0 -2 -8 -10 -17 -17 -16 -13 -17 -12 -4 4 13 16 21 21
21 13z m-45 -36 c-3 -5 -12 -10 -18 -10 -7 0 -6 4 3 10 19 12 23 12 15 0z
m-231 -6 c21 -8 21 -24 0 -24 -9 0 -50 -33 -92 -72 l-76 -73 75 87 c40 47 75
87 76 87 1 1 8 -2 17 -5z m69 -21 c-7 -2 -21 -2 -30 0 -10 3 -4 5 12 5 17 0
24 -2 18 -5z m501 -263 c36 -23 76 -86 76 -120 0 -35 -34 -86 -69 -105 -66
-34 -140 -6 -182 68 -19 34 -20 44 -10 78 25 82 119 123 185 79z m96 -298 c0
-4 -10 -13 -22 -21 -23 -14 -23 -14 -4 8 20 22 26 25 26 13z m-707 -179 c-7
-2 -19 -2 -25 0 -7 3 -2 5 12 5 14 0 19 -2 13 -5z m58 -128 c40 -21 69 -71 69
-119 0 -31 -7 -45 -39 -77 -44 -44 -87 -51 -147 -23 -81 39 -88 167 -12 214
40 24 88 26 129 5z m-368 -12 c-13 -2 -33 -2 -45 0 -13 2 -3 4 22 4 25 0 35
-2 23 -4z m519 -222 c-11 -30 -62 -82 -72 -76 -6 4 -10 2 -10 -2 0 -5 -10 -9
-22 -10 -18 -1 -14 3 14 18 21 10 50 35 65 54 32 40 35 42 25 16z m23 -91
c-20 -22 -35 -26 -35 -10 0 6 6 10 14 10 8 0 17 7 20 16 4 9 9 14 13 10 3 -3
-2 -15 -12 -26z m-335 10 c8 -5 11 -10 5 -10 -5 0 -17 5 -25 10 -8 5 -10 10
-5 10 6 0 17 -5 25 -10z m93 -27 c-7 -2 -19 -2 -25 0 -7 3 -2 5 12 5 14 0 19
-2 13 -5z m-363 -486 c0 -1 -21 -20 -47 -41 l-48 -38 44 41 c40 38 51 46 51
38z m3628 -477 c50 -22 190 -161 491 -485 337 -363 381 -415 381 -451 0 -34
-58 -87 -126 -113 -180 -71 -109 -64 -764 -73 -842 -13 -4547 -4 -4670 11
-177 22 -300 75 -343 149 l-19 33 26 39 c26 40 684 720 809 837 36 34 76 63
89 66 13 2 936 5 2052 6 2013 1 2028 1 2074 -19z"/>
<path d="M2077 4732 c-34 -38 -8 -102 42 -102 32 0 71 37 71 67 0 47 -80 72
-113 35z"/>
<path d="M3353 3834 c-18 -9 -33 -22 -33 -30 0 -7 -21 -30 -46 -51 -26 -21
-84 -73 -130 -115 -45 -43 -87 -79 -93 -79 -6 -1 -14 -2 -18 -3 -20 -3 -92
-70 -86 -80 3 -6 3 -8 -2 -4 -10 9 -96 -62 -89 -73 3 -5 1 -8 -4 -7 -6 2 -23
-11 -39 -28 -26 -29 -56 -56 -183 -164 -29 -25 -67 -58 -84 -73 -47 -43 -164
-137 -171 -137 -4 0 -23 -17 -44 -37 -52 -53 -149 -137 -212 -185 -30 -22 -82
-62 -115 -89 -36 -28 -68 -47 -76 -44 -8 3 -21 -2 -28 -12 -12 -15 -12 -16 0
-5 8 6 19 12 25 12 5 0 1 -7 -9 -15 -10 -8 -23 -12 -27 -9 -5 3 -18 -1 -30
-10 -19 -13 15 -15 312 -18 l333 -3 76 71 c41 39 120 109 175 155 55 46 154
131 220 189 66 58 161 139 210 180 204 168 342 294 350 321 9 28 -21 71 -75
108 -27 18 -58 44 -71 57 -20 21 -21 27 -11 66 17 67 25 128 15 128 -4 0 -23
-8 -40 -16z m-307 -466 c5 -7 2 -9 -7 -4 -8 4 -6 1 4 -7 19 -16 117 -17 151
-2 14 6 17 5 12 -3 -4 -7 -14 -12 -22 -12 -8 0 -13 -4 -10 -9 7 -10 -48 -61
-204 -191 -62 -52 -160 -137 -217 -189 -57 -52 -106 -91 -110 -87 -3 3 0 6 7
6 7 0 11 3 7 6 -8 8 18 34 33 34 7 0 9 7 6 15 -4 10 3 20 19 27 20 9 22 14 14
25 -9 11 -3 22 30 52 22 21 41 47 41 58 0 11 9 28 20 38 14 12 18 25 14 41 -4
17 -2 24 8 24 8 0 25 11 38 25 13 14 20 25 16 25 -4 0 -1 6 6 14 7 8 16 12 20
9 4 -2 5 4 1 13 -5 13 -3 16 10 11 9 -3 16 -2 14 2 -1 7 81 90 90 91 1 0 5 -5
9 -12z m-436 -542 c0 -2 -6 -9 -14 -15 -11 -9 -16 -9 -22 0 -4 7 -3 9 4 5 6
-3 13 -2 17 4 6 10 15 14 15 6z m-50 -41 c0 -2 -7 -8 -15 -15 -12 -10 -15 -10
-15 2 0 8 7 15 15 15 8 0 15 -1 15 -2z m-69 -62 c-49 -40 -142 -103 -152 -103
-4 0 -3 16 3 36 7 28 7 39 -4 46 -9 7 -7 8 10 5 15 -3 22 0 22 9 0 8 11 14 28
15 15 0 35 4 45 8 10 4 33 8 50 9 l32 2 -34 -27z"/>
<path d="M4931 4137 c-19 -23 -26 -34 -15 -25 24 21 43 8 45 -31 1 -15 5 -4
10 23 12 73 0 82 -40 33z"/>
<path d="M4952 4030 c0 -14 2 -19 5 -12 2 6 2 18 0 25 -3 6 -5 1 -5 -13z"/>
<path d="M4902 3885 c-17 -37 -14 -45 4 -12 9 16 14 31 11 33 -2 2 -9 -7 -15
-21z"/>
<path d="M4834 3778 l-19 -23 23 19 c12 11 22 21 22 23 0 8 -8 2 -26 -19z"/>
<path d="M4765 3708 l-40 -41 42 32 c44 33 60 51 46 51 -4 -1 -26 -19 -48 -42z"/>
<path d="M4694 3654 c-18 -14 -18 -15 4 -4 12 6 22 13 22 15 0 8 -5 6 -26 -11z"/>
<path d="M2500 4120 c-23 -23 -24 -30 -8 -64 15 -33 43 -42 73 -22 37 24 44
65 15 88 -29 23 -55 23 -80 -2z"/>
<path d="M1946 3535 c-38 -39 -22 -98 31 -111 73 -19 97 83 27 115 -33 14 -40
14 -58 -4z"/>
<path d="M1242 2133 c-28 -32 -52 -59 -52 -60 0 -2 102 -3 228 -3 l227 0 17
28 c9 15 26 42 38 60 l22 32 -214 0 -214 0 -52 -57z"/>
<path d="M1802 2129 l-41 -59 187 0 187 0 28 50 c15 28 27 53 27 58 0 4 -78 8
-174 8 l-174 1 -40 -58z"/>
<path d="M2290 2129 l-30 -59 178 0 178 0 17 53 c9 30 17 56 17 58 0 2 -74 5
-165 6 l-165 2 -30 -60z"/>
<path d="M3302 2183 l-83 -4 3 -55 c2 -30 6 -54 11 -54 4 0 86 0 182 0 l174 0
-14 41 c-8 23 -15 50 -15 60 0 20 -21 21 -258 12z"/>
<path d="M3694 2183 c-21 -4 -21 -5 -5 -59 l16 -55 75 -5 c41 -3 122 -2 180 2
l106 6 -19 59 -20 59 -156 -1 c-86 -1 -166 -4 -177 -6z"/>
<path d="M4148 2184 c-4 -3 6 -33 20 -66 l27 -60 89 6 c49 3 133 6 187 6 l98
0 -24 46 c-14 26 -25 53 -25 60 0 11 -36 14 -183 14 -101 0 -186 -3 -189 -6z"/>
<path d="M4708 2183 c-43 -2 -78 -6 -78 -9 0 -3 15 -27 32 -52 18 -26 34 -49
35 -50 2 -5 56 -5 281 -3 l184 1 -46 51 c-25 28 -46 55 -46 60 0 8 -188 9
-362 2z"/>
<path d="M2756 2143 c-4 -21 -9 -46 -12 -55 -5 -17 8 -18 175 -18 l181 0 0 39
c0 22 3 46 6 55 5 14 -13 16 -169 16 l-175 0 -6 -37z"/>
<path d="M1348 2020 l-207 -5 -55 -54 c-30 -30 -53 -58 -50 -63 3 -4 115 -8
250 -8 189 0 244 3 244 13 0 6 16 34 35 61 41 58 43 67 13 64 -13 -1 -116 -5
-230 -8z"/>
<path d="M1910 2022 l-175 -3 -35 -57 c-19 -31 -36 -60 -38 -64 -2 -5 84 -8
191 -8 l195 0 31 66 c35 76 35 75 19 72 -7 -1 -92 -4 -188 -6z"/>
<path d="M4398 2023 l-178 -3 32 -65 32 -65 199 0 199 0 -18 28 c-10 15 -29
46 -42 70 -13 23 -29 41 -35 40 -7 -1 -92 -4 -189 -5z"/>
<path d="M4730 2024 c0 -2 16 -28 35 -58 19 -30 35 -60 35 -66 0 -7 89 -10
271 -10 l270 0 -63 70 -63 69 -242 -1 c-134 0 -243 -2 -243 -4z"/>
<path d="M2210 1963 c-14 -31 -26 -60 -28 -65 -4 -9 238 -11 326 -2 l60 7 11
42 c6 23 13 50 17 59 6 14 -12 16 -177 16 l-184 0 -25 -57z"/>
<path d="M2708 1960 c-13 -53 -13 -60 1 -65 8 -3 100 -5 203 -4 l188 1 0 64 0
64 -189 0 -188 0 -15 -60z"/>
<path d="M3230 1955 l0 -65 200 0 c110 0 200 4 200 8 0 5 -5 34 -11 65 l-12
57 -188 0 -189 0 0 -65z"/>
<path d="M3744 1961 c12 -34 28 -62 37 -64 9 -2 96 -5 194 -6 168 -2 177 -1
170 16 -5 10 -15 39 -24 65 l-16 48 -191 0 -191 0 21 -59z"/>
<path d="M4329 1780 l36 -75 218 -3 c119 -2 217 -1 217 2 0 3 -18 31 -40 62
-22 32 -40 63 -40 70 0 10 -47 14 -213 16 l-214 3 36 -75z"/>
<path d="M1584 1793 c-19 -28 -41 -57 -49 -63 -8 -7 -15 -16 -15 -21 0 -5 100
-9 223 -9 l222 1 30 66 c17 36 31 69 33 72 1 3 -91 6 -204 6 l-206 0 -34 -52z"/>
<path d="M2161 1840 c-5 -3 -11 -18 -15 -34 -4 -17 -17 -43 -28 -58 -11 -16
-17 -32 -14 -35 12 -12 118 -15 269 -8 l153 7 15 69 16 70 -195 -3 c-106 -2
-197 -5 -201 -8z"/>
<path d="M2666 1785 c-9 -35 -16 -67 -16 -70 0 -3 101 -5 225 -5 l225 0 0 63
0 64 -97 6 c-54 4 -148 7 -209 7 l-112 0 -16 -65z"/>
<path d="M3230 1780 l0 -70 224 0 224 0 -10 48 c-20 104 10 92 -228 92 l-210
0 0 -70z"/>
<path d="M3787 1823 c3 -16 12 -48 18 -73 l11 -45 213 -3 212 -4 -14 29 c-8
15 -24 49 -36 76 l-21 47 -195 0 -195 0 7 -27z"/>
<path d="M4876 1793 c64 -102 32 -93 335 -93 147 0 270 4 273 8 2 4 -24 38
-58 75 l-62 67 -263 0 -262 0 37 -57z"/>
<path d="M927 1781 c-34 -33 -59 -63 -55 -66 12 -12 247 -18 391 -10 l139 7
14 34 c8 19 26 44 39 56 14 12 25 25 25 30 0 4 -111 8 -246 8 l-246 0 -61 -59z"/>
<path d="M756 1591 l-68 -68 48 -7 c26 -3 155 -6 288 -6 l241 0 50 68 c28 37
52 70 53 75 2 4 -119 7 -270 7 l-274 0 -68 -69z"/>
<path d="M1456 1595 c-23 -33 -45 -66 -49 -72 -7 -10 42 -13 230 -13 l239 0
32 66 c18 37 32 68 30 69 -2 2 -101 5 -222 7 l-218 3 -42 -60z"/>
<path d="M2045 1591 c-17 -35 -31 -67 -33 -71 -1 -4 383 -8 854 -9 l856 -2 -6
58 c-4 32 -9 65 -12 74 -4 15 -75 16 -817 15 l-813 -1 -29 -64z"/>
<path d="M3836 1595 c4 -33 11 -64 16 -70 9 -10 455 -12 464 -2 2 2 -8 31 -23
65 l-28 61 -218 3 -217 3 6 -60z"/>
<path d="M4400 1648 c0 -4 14 -37 32 -73 l32 -65 223 0 c123 0 223 2 223 6 0
3 -18 35 -40 72 l-41 67 -214 0 c-118 0 -215 -3 -215 -7z"/>
<path d="M4982 1630 c5 -14 23 -46 40 -72 l30 -48 299 0 c164 0 299 3 299 6 0
3 -28 37 -62 75 l-63 69 -276 -3 -277 -2 10 -25z"/>
<path d="M2422 1418 c-2 -11 -22 -55 -43 -99 l-38 -79 232 -2 c128 -1 499 -2
824 -2 521 -1 593 1 593 14 0 8 -19 54 -42 103 l-43 87 -739 -1 c-734 0 -738
0 -744 -21z"/>
</g>
</svg>
